<svg version="1.1" id="Layer_1" xmlns="http://www.w3.org/2000/svg" xmlns:xlink="http://www.w3.org/1999/xlink" x="0px" y="0px"
	 width="100%" viewBox="0 0 512 512" enable-background="new 0 0 512 512" xml:space="preserve">
<path fill="#000000" opacity="1.000000" stroke="none" 
	d="
M284.000000,513.000000 
	C189.356308,513.000000 95.212616,513.000000 1.034460,513.000000 
	C1.034460,342.397949 1.034460,171.795883 1.034460,1.096914 
	C171.560379,1.096914 342.120819,1.096914 512.840637,1.096914 
	C512.840637,171.666550 512.840637,342.333252 512.840637,513.000000 
	C436.795868,513.000000 360.647919,513.000000 284.000000,513.000000 
M508.930786,307.053406 
	C508.898682,271.029388 508.866577,235.005341 508.932159,198.050980 
	C508.954956,176.896027 508.458984,155.723831 509.160736,134.591431 
	C509.747528,116.920937 494.696442,102.851570 477.173737,102.875183 
	C330.419312,103.072937 183.664490,102.987610 36.909790,102.987793 
	C35.743752,102.987793 34.576733,102.959511 33.411823,102.996468 
	C19.310770,103.443687 5.335089,116.362564 5.100703,130.022720 
	C4.775015,149.003998 5.112223,167.996628 5.043804,187.917236 
	C5.084387,223.939087 5.124970,259.960938 5.047575,296.915680 
	C5.086443,323.941132 5.125312,350.966553 5.056420,378.924744 
	C5.036211,384.090546 5.394118,389.290894 4.926296,394.415833 
	C3.402442,411.109650 18.861031,426.171600 36.489235,426.140381 
	C183.474838,425.880096 330.461121,425.992645 477.447174,425.992310 
	C478.780365,425.992310 480.114960,426.026367 481.446564,425.978943 
	C494.545593,425.512482 508.565063,412.142059 508.944000,399.481171 
	C509.158142,392.325592 508.887848,385.155548 508.935944,377.060272 
	C508.902130,354.034912 508.868286,331.009583 508.930786,307.053406 
z"/>
<path fill="#1D4A7D" opacity="1.000000" stroke="none" 
	d="
M5.165661,186.984406 
	C5.112223,167.996628 4.775015,149.003998 5.100703,130.022720 
	C5.335089,116.362564 19.310770,103.443687 33.411823,102.996468 
	C34.576733,102.959511 35.743752,102.987793 36.909790,102.987793 
	C183.664490,102.987610 330.419312,103.072937 477.173737,102.875183 
	C494.696442,102.851570 509.747528,116.920937 509.160736,134.591431 
	C508.458984,155.723831 508.954956,176.896027 508.426453,198.520630 
	C484.859161,198.993698 461.797089,198.926575 438.736786,199.097870 
	C436.122589,199.117279 433.518372,200.477997 430.625549,201.025284 
	C403.673828,162.451019 366.398621,146.711685 320.589752,150.344925 
	C296.446381,152.259827 275.620514,162.545914 257.433472,178.538910 
	C254.855026,176.679657 252.502060,175.114609 250.255310,173.409637 
	C214.530884,146.299942 175.780518,142.359314 134.540192,158.507431 
	C118.783134,164.677292 105.920372,175.151474 93.651741,187.033051 
	C63.838631,187.010788 34.502148,186.997589 5.165661,186.984406 
z"/>
<path fill="#173B65" opacity="1.000000" stroke="none" 
	d="
M508.835815,377.992004 
	C508.887848,385.155548 509.158142,392.325592 508.944000,399.481171 
	C508.565063,412.142059 494.545593,425.512482 481.446564,425.978943 
	C480.114960,426.026367 478.780365,425.992310 477.447174,425.992310 
	C330.461121,425.992645 183.474838,425.880096 36.489235,426.140381 
	C18.861031,426.171600 3.402442,411.109650 4.926296,394.415833 
	C5.394118,389.290894 5.036211,384.090546 5.566535,378.460297 
	C52.316853,377.997162 98.557137,378.030304 144.797028,377.909637 
	C147.211609,377.903320 149.622772,376.587646 152.461121,375.883820 
	C162.595551,376.924835 172.302979,378.749786 182.013641,378.767059 
	C190.622116,378.782410 199.234161,376.788727 208.119080,375.980194 
	C210.409256,376.850891 212.423050,377.913940 214.440948,377.921783 
	C242.477142,378.030914 270.514221,378.052643 298.549866,377.885803 
	C300.770630,377.872620 302.982178,376.306213 305.602905,375.510559 
	C324.629639,380.218231 343.256836,379.633392 362.109253,375.961334 
	C364.647949,376.870758 366.963959,377.923126 369.282074,377.927795 
	C415.799805,378.021484 462.317841,377.994598 508.835815,377.992004 
z"/>
<path fill="#193E69" opacity="1.000000" stroke="none" 
	d="
M152.035538,375.881531 
	C149.622772,376.587646 147.211609,377.903320 144.797028,377.909637 
	C98.557137,378.030304 52.316853,377.997162 5.620416,377.993927 
	C5.125312,350.966553 5.086443,323.941132 5.563077,296.453369 
	C27.161234,295.962616 48.243889,295.934204 69.535370,296.192932 
	C70.155373,297.745178 70.540482,299.019470 70.981560,300.274078 
	C81.358673,329.790405 99.873344,352.392365 128.074539,366.411163 
	C135.737274,370.220276 144.031265,372.759491 152.035538,375.881531 
z"/>
<path fill="#1B4474" opacity="1.000000" stroke="none" 
	d="
M69.326546,295.905823 
	C48.243889,295.934204 27.161234,295.962616 5.622066,295.986908 
	C5.124970,259.960938 5.084387,223.939087 5.104733,187.450821 
	C34.502148,186.997589 63.838631,187.010788 93.527588,187.349670 
	C77.521950,206.404083 67.727341,227.980194 65.415665,252.861420 
	C64.058617,267.467621 66.014679,281.740417 69.326546,295.905823 
z"/>
<path fill="#1A4372" opacity="1.000000" stroke="none" 
	d="
M430.909515,201.216736 
	C433.518372,200.477997 436.122589,199.117279 438.736786,199.097870 
	C461.797089,198.926575 484.859161,198.993698 508.377594,198.985809 
	C508.866577,235.005341 508.898682,271.029388 508.426147,307.522644 
	C485.598328,307.993652 463.275116,307.995392 440.963867,307.617432 
	C448.936676,286.216736 451.103516,264.670319 447.017090,242.509537 
	C444.286163,227.699707 438.153076,214.249496 430.909515,201.216736 
z"/>
<path fill="#193E69" opacity="1.000000" stroke="none" 
	d="
M440.951935,307.997162 
	C463.275116,307.995392 485.598328,307.993652 508.377991,307.988037 
	C508.868286,331.009583 508.902130,354.034912 508.885864,377.526123 
	C462.317841,377.994598 415.799805,378.021484 369.282074,377.927795 
	C366.963959,377.923126 364.647949,376.870758 362.410522,375.762085 
	C386.779205,369.028839 407.461578,356.752472 422.997803,337.063843 
	C430.006012,328.182556 435.028503,317.734406 440.951935,307.997162 
z"/>
<path fill="#E31E2D" opacity="1.000000" stroke="none" 
	d="
M69.535370,296.192932 
	C66.014679,281.740417 64.058617,267.467621 65.415665,252.861420 
	C67.727341,227.980194 77.521950,206.404083 94.004211,187.358734 
	C105.920372,175.151474 118.783134,164.677292 134.540192,158.507431 
	C175.780518,142.359314 214.530884,146.299942 250.255310,173.409637 
	C252.502060,175.114609 254.855026,176.679657 257.563995,178.813721 
	C259.773834,181.555710 261.578247,183.793793 263.492493,186.168091 
	C257.131561,188.449997 248.826691,183.531738 244.540726,193.210739 
	C247.386642,193.210739 249.186142,193.201797 250.985535,193.212433 
	C256.145142,193.242950 261.312744,193.116455 266.461792,193.367569 
	C270.792114,193.578751 273.939148,195.545746 274.809418,201.026947 
	C263.482666,201.026947 252.540512,201.182816 241.606659,200.949478 
	C237.293274,200.857407 235.883636,202.856171 235.481201,207.212646 
	C248.959732,207.212646 262.092682,207.343613 275.220032,207.130753 
	C279.028168,207.069000 281.245117,208.252045 281.841492,212.359344 
	C280.191345,213.155914 278.692352,213.907944 277.172974,213.951630 
	C271.871490,214.104050 266.560242,213.906693 261.257843,214.042206 
	C256.170746,214.172211 251.090012,214.550934 245.542862,214.881439 
	C241.429504,214.962952 237.774002,215.120697 234.131592,214.967133 
	C230.082230,214.796417 228.382080,216.666473 228.463150,221.027695 
	C230.562363,221.027695 232.531021,221.032013 234.499649,221.027023 
	C249.929214,220.987869 265.358765,220.944916 280.788330,220.908020 
	C284.272400,220.899689 287.627563,221.105240 287.914551,226.110016 
	C285.792114,226.986526 283.818237,227.875580 281.836334,227.893784 
	C264.892883,228.049515 247.947769,228.016068 231.003784,228.132217 
	C228.894287,228.146683 226.788498,228.703812 224.510223,229.311508 
	C224.058838,231.203842 223.778214,232.794159 223.399933,234.937912 
	C225.725403,234.937912 227.526535,234.935471 229.327667,234.938278 
	C248.292435,234.967865 267.257233,234.985748 286.221924,235.036362 
	C291.705048,235.050995 292.234070,235.760788 291.328949,242.237030 
	C289.309814,242.237030 287.191956,242.232376 285.074066,242.237747 
	C264.117737,242.290985 243.161377,242.345886 221.751404,242.280640 
	C211.410202,241.822525 211.415710,241.823486 209.716782,251.580185 
	C208.635773,257.788208 207.508392,263.988281 206.452438,270.200500 
	C205.592682,275.258545 204.342606,280.308044 204.109390,285.399994 
	C203.825165,291.605743 207.443741,293.639191 216.239075,293.023804 
	C222.193436,292.607178 223.392609,291.102966 222.811340,284.779572 
	C214.824310,283.684906 214.425827,283.093628 216.223633,274.929138 
	C216.544403,273.472351 216.906525,272.024658 217.449356,270.892029 
	C218.713364,272.226135 219.718079,273.314728 220.858475,274.235199 
	C221.999725,275.156403 223.276566,275.909576 224.615280,277.187744 
	C225.751434,285.542419 230.386597,290.283783 237.960709,291.930817 
	C241.810394,292.767975 245.855835,293.031769 249.808273,292.999603 
	C257.313660,292.938599 259.528107,290.036163 258.589172,282.223175 
	C241.382797,285.354492 236.317123,283.812012 236.378830,275.018158 
	C243.013275,275.018158 249.655716,274.944580 256.295471,275.046875 
	C260.037384,275.104492 261.702118,273.255219 262.141754,269.731140 
	C263.685150,257.359802 254.230164,248.347824 241.983139,250.595505 
	C232.209579,252.389221 227.547546,259.267487 224.353760,267.968750 
	C221.232864,268.069885 218.534500,268.160858 218.598206,263.779236 
	C218.795563,257.933685 223.618622,261.254913 225.864227,259.278687 
	C226.299133,255.880051 229.648163,251.044891 221.957550,251.041687 
	C221.850693,251.041641 221.744492,249.497208 222.120758,248.770737 
	C244.484482,248.877792 266.365845,248.830414 288.245667,248.993515 
	C290.248779,249.008438 292.241821,250.369751 294.083313,251.434265 
	C292.206879,257.206573 290.486633,262.650421 288.325989,268.053009 
	C284.597687,267.942657 281.309753,267.873596 277.975342,267.437164 
	C279.153503,265.690704 280.259583,263.261627 281.622559,263.107758 
	C288.907959,262.285156 289.107635,256.551849 290.704651,251.709885 
	C290.425537,251.263199 290.146454,250.816498 289.867340,250.369812 
	C286.329163,252.085846 282.790955,253.801865 279.387909,255.452347 
	C277.263580,250.443726 272.206726,252.752136 267.867676,251.532928 
	C265.525208,265.384125 263.246338,278.859253 260.898804,292.740356 
	C264.868042,292.740356 268.298401,292.740356 272.013611,292.740356 
	C272.376190,291.266449 272.769165,289.669006 273.620300,288.071503 
	C279.911377,288.071411 285.744354,288.071411 292.378479,288.071411 
	C291.350555,291.089142 290.729919,292.911102 289.635742,294.818848 
	C269.504974,294.938354 249.847504,294.935913 230.190826,295.060272 
	C228.159134,295.073120 226.132233,295.841248 224.168030,296.614899 
	C224.830063,300.936859 226.993683,302.311401 231.098251,302.252899 
	C248.181152,302.009491 265.268829,302.091522 282.354767,302.083862 
	C284.105042,302.083069 285.855408,302.280853 288.869263,302.462738 
	C287.280884,305.209625 286.202972,307.073761 284.643158,308.940369 
	C267.702881,308.976959 251.244186,308.974274 234.786423,309.095123 
	C232.892227,309.109009 231.003082,309.811401 229.179169,310.545837 
	C230.044342,315.113495 232.664978,316.122101 236.756973,316.052887 
	C249.894608,315.830658 263.039001,315.997375 276.180725,316.039154 
	C277.931305,316.044708 279.681427,316.194916 281.567535,316.284607 
	C279.315826,322.811249 278.877502,323.179413 273.231750,323.189423 
	C262.917908,323.207672 252.603943,323.176544 242.290192,323.213837 
	C240.597702,323.219940 238.906113,323.470276 236.744095,323.645935 
	C238.580841,328.400452 241.557037,330.033386 245.577133,329.993835 
	C251.065643,329.939880 256.552765,329.754120 262.041168,329.675842 
	C265.577667,329.625397 269.115448,329.666351 273.062927,329.666351 
	C270.139252,336.679535 269.609375,337.070618 263.609039,337.097839 
	C258.206848,337.122345 252.804413,337.102997 246.867523,337.102997 
	C249.334595,345.587067 256.859406,341.763275 261.418182,344.681030 
	C259.986298,346.452881 258.749878,347.982880 257.222931,349.682251 
	C255.204285,350.821198 253.303543,351.574432 251.775131,352.794189 
	C238.617584,363.294830 224.393677,371.708496 207.844620,375.681915 
	C199.234161,376.788727 190.622116,378.782410 182.013641,378.767059 
	C172.302979,378.749786 162.595551,376.924835 152.461121,375.883820 
	C144.031265,372.759491 135.737274,370.220276 128.074539,366.411163 
	C99.873344,352.392365 81.358673,329.790405 70.981560,300.274078 
	C70.540482,299.019470 70.155373,297.745178 69.535370,296.192932 
M110.559280,286.140564 
	C113.715752,278.498322 116.872231,270.856079 120.028702,263.213837 
	C120.479660,263.358551 120.930611,263.503296 121.381569,263.648041 
	C119.987167,273.261627 118.592758,282.875183 117.159218,292.758636 
	C120.706039,292.758636 123.811226,292.758636 127.348091,292.758636 
	C130.419006,275.972229 133.475342,259.265564 136.636780,241.984390 
	C132.254242,241.984390 128.743576,242.300903 125.312347,241.913666 
	C119.484474,241.255951 116.140190,243.218735 114.211197,249.078064 
	C111.984619,255.841263 108.653069,262.240692 105.801323,268.798096 
	C105.506592,268.692230 105.211868,268.586395 104.917137,268.480560 
	C104.266464,259.938019 103.615799,251.395508 102.939735,242.519653 
	C96.691269,242.519653 91.053070,242.519653 84.874588,242.519653 
	C81.913155,258.995789 78.910286,275.702454 75.870895,292.612305 
	C79.887619,292.612305 83.140892,292.612305 86.560730,292.612305 
	C88.497025,281.153198 90.390411,269.947937 92.283806,258.742676 
	C93.783951,264.285797 94.465332,269.843781 94.702484,275.420624 
	C94.946312,281.154602 94.756592,286.906982 94.756592,292.806824 
	C99.990578,292.806824 103.795723,292.806824 107.744843,292.806824 
	C108.566376,290.812927 109.386375,288.822723 110.559280,286.140564 
M153.165161,259.772003 
	C156.874512,259.952087 159.556747,261.332336 160.028778,265.973053 
	C157.520020,266.327820 155.096024,266.603119 152.697754,267.024811 
	C148.622360,267.741302 144.399185,268.079773 140.534592,269.427338 
	C134.327026,271.591919 131.222137,279.225128 133.182266,286.063202 
	C134.674927,291.270508 140.419113,294.567932 146.816696,293.409668 
	C150.162415,292.803955 153.361404,291.387726 156.293381,290.444763 
	C158.971909,294.831909 163.038223,292.390991 166.974136,293.011627 
	C168.583069,283.092194 170.351746,273.493866 171.632797,263.830902 
	C172.487198,257.386108 169.923218,253.369247 163.566833,252.122864 
	C158.452606,251.120026 153.000504,251.040390 147.789856,251.528488 
	C141.041702,252.160629 140.365265,253.508194 140.480286,260.900146 
	C144.412704,260.513031 148.343704,260.126038 153.165161,259.772003 
M188.878143,282.422455 
	C183.323212,283.132294 177.768295,283.842133 171.332443,284.664520 
	C171.118271,285.918732 170.660690,288.598297 170.180222,291.411987 
	C178.866959,294.529602 187.101868,295.410797 195.008408,290.595123 
	C199.842880,287.650574 202.856461,283.349670 202.292328,277.373566 
	C201.744034,271.565186 197.429916,269.368286 192.537857,268.136597 
	C188.909393,267.223022 187.202667,265.198273 187.391876,260.542175 
	C192.493530,260.245148 197.530014,259.951904 202.739319,259.648590 
	C203.201553,257.018829 203.650742,254.463348 204.202606,251.323700 
	C197.601181,251.323700 191.438675,250.759094 185.427231,251.470749 
	C178.373093,252.305817 174.962173,256.763947 174.263779,264.105957 
	C173.781677,269.174133 175.691833,271.573242 182.785904,274.761932 
	C185.860809,276.144043 189.029846,277.421814 188.878143,282.422455 
z"/>
<path fill="#F7AF2C" opacity="1.000000" stroke="none" 
	d="
M294.239563,251.105850 
	C292.241821,250.369751 290.248779,249.008438 288.245667,248.993515 
	C266.365845,248.830414 244.484482,248.877792 222.082397,248.374603 
	C221.775848,246.054321 221.990448,244.227310 222.205032,242.400314 
	C243.161377,242.345886 264.117737,242.290985 285.074066,242.237747 
	C287.191956,242.232376 289.309814,242.237030 291.328949,242.237030 
	C292.234070,235.760788 291.705048,235.050995 286.221924,235.036362 
	C267.257233,234.985748 248.292435,234.967865 229.327667,234.938278 
	C227.526535,234.935471 225.725403,234.937912 223.399933,234.937912 
	C223.778214,232.794159 224.058838,231.203842 225.018448,229.321747 
	C239.271423,229.016891 252.845413,229.008377 266.419403,228.988770 
	C272.709747,228.979691 279.000427,228.980423 285.290192,228.909851 
	C287.292847,228.887405 289.801056,229.087753 288.059418,225.718887 
	C287.627563,221.105240 284.272400,220.899689 280.788330,220.908020 
	C265.358765,220.944916 249.929214,220.987869 234.499649,221.027023 
	C232.531021,221.032013 230.562363,221.027695 228.463150,221.027695 
	C228.382080,216.666473 230.082230,214.796417 234.131592,214.967133 
	C237.774002,215.120697 241.429504,214.962952 246.009094,214.932098 
	C257.739807,214.950485 268.540771,215.014374 279.341339,214.972366 
	C281.073761,214.965622 284.106598,215.625397 281.983246,211.989990 
	C281.245117,208.252045 279.028168,207.069000 275.220032,207.130753 
	C262.092682,207.343613 248.959732,207.212646 235.481201,207.212646 
	C235.883636,202.856171 237.293274,200.857407 241.606659,200.949478 
	C252.540512,201.182816 263.482666,201.026947 274.809418,201.026947 
	C273.939148,195.545746 270.792114,193.578751 266.461792,193.367569 
	C261.312744,193.116455 256.145142,193.242950 250.985535,193.212433 
	C249.186142,193.201797 247.386642,193.210739 244.540726,193.210739 
	C248.826691,183.531738 257.131561,188.449997 263.492493,186.168091 
	C261.578247,183.793793 259.773834,181.555710 257.838898,179.042816 
	C275.620514,162.545914 296.446381,152.259827 320.589752,150.344925 
	C366.398621,146.711685 403.673828,162.451019 430.625549,201.025284 
	C438.153076,214.249496 444.286163,227.699707 447.017090,242.509537 
	C451.103516,264.670319 448.936676,286.216736 440.963867,307.617432 
	C435.028503,317.734406 430.006012,328.182556 422.997803,337.063843 
	C407.461578,356.752472 386.779205,369.028839 362.188812,375.417175 
	C343.256836,379.633392 324.629639,380.218231 305.285217,375.347717 
	C286.636780,370.713135 271.553131,361.071472 257.513458,349.512878 
	C258.749878,347.982880 259.986298,346.452881 261.418182,344.681030 
	C256.859406,341.763275 249.334595,345.587067 246.867523,337.102997 
	C252.804413,337.102997 258.206848,337.122345 263.609039,337.097839 
	C269.609375,337.070618 270.139252,336.679535 273.062927,329.666351 
	C269.115448,329.666351 265.577667,329.625397 262.041168,329.675842 
	C256.552765,329.754120 251.065643,329.939880 245.577133,329.993835 
	C241.557037,330.033386 238.580841,328.400452 236.744095,323.645935 
	C238.906113,323.470276 240.597702,323.219940 242.290192,323.213837 
	C252.603943,323.176544 262.917908,323.207672 273.231750,323.189423 
	C278.877502,323.179413 279.315826,322.811249 281.567535,316.284607 
	C279.681427,316.194916 277.931305,316.044708 276.180725,316.039154 
	C263.039001,315.997375 249.894608,315.830658 236.756973,316.052887 
	C232.664978,316.122101 230.044342,315.113495 229.637253,310.502869 
	C246.314850,310.060760 262.602173,310.048889 278.888611,309.920532 
	C280.969879,309.904144 283.046356,309.280304 285.125031,308.937866 
	C286.202972,307.073761 287.280884,305.209625 288.869263,302.462738 
	C285.855408,302.280853 284.105042,302.083069 282.354767,302.083862 
	C265.268829,302.091522 248.181152,302.009491 231.098251,302.252899 
	C226.993683,302.311401 224.830063,300.936859 224.625427,296.545044 
	C244.711578,296.077881 264.405487,296.072418 284.098511,295.940460 
	C286.104706,295.927032 288.105835,295.153748 290.109314,294.733063 
	C290.729919,292.911102 291.350555,291.089142 292.378479,288.071411 
	C285.744354,288.071411 279.911377,288.071411 273.577637,287.687988 
	C273.426361,285.547089 273.775818,283.789581 274.583282,282.002502 
	C280.275635,281.961548 285.510010,281.950226 290.964600,282.207672 
	C295.929810,290.103699 302.949646,293.265167 311.764130,293.409790 
	C320.334320,293.550446 323.824799,289.811615 322.617310,281.099030 
	C320.362122,281.642426 318.138885,282.387787 315.857239,282.684692 
	C310.961212,283.321716 306.325562,282.399689 303.434692,278.079926 
	C299.082397,271.576263 301.154480,264.941772 304.124634,258.626801 
	C306.810059,252.917252 311.857239,251.109192 317.814026,251.636169 
	C321.246033,251.939819 324.643768,252.630600 328.505035,253.214951 
	C329.032837,249.631088 329.522949,246.303085 330.018555,242.937775 
	C316.108093,238.847702 303.836548,239.250244 294.239563,251.105850 
M390.942566,286.391571 
	C397.314911,294.812408 402.742676,295.846466 410.314850,291.519623 
	C415.849182,292.344940 419.689728,292.917694 423.903015,293.546021 
	C426.866333,276.034088 429.682281,259.393158 432.500092,242.741287 
	C422.738892,241.297745 422.754425,241.301300 420.855896,249.597641 
	C420.424225,251.483978 419.844238,253.336380 419.314148,255.271561 
	C408.338440,249.912201 401.638031,250.589752 395.181335,257.489319 
	C388.188904,264.961304 386.326447,276.320862 390.942566,286.391571 
M344.162109,291.868530 
	C345.542297,291.307709 346.922455,290.746857 348.302643,290.186035 
	C348.243835,290.686005 348.185059,291.185974 348.126251,291.685944 
	C350.707764,292.138702 353.375824,293.187134 355.839630,292.829346 
	C357.412598,292.600922 359.621582,290.475403 359.933350,288.884552 
	C361.624146,280.257019 363.262695,271.570587 364.030640,262.826416 
	C364.635498,255.939163 360.694092,251.831863 353.817322,251.134476 
	C349.870941,250.734283 345.824951,250.841202 341.862427,251.176407 
	C334.002625,251.841324 333.122772,252.961716 332.802856,261.181213 
	C351.294586,259.472412 351.674683,259.566895 351.795258,266.202759 
	C349.528564,266.373169 347.186737,266.294006 344.964172,266.770721 
	C340.622589,267.701965 336.030090,268.295013 332.119446,270.209015 
	C326.232269,273.090393 323.698395,281.479156 326.004669,287.569305 
	C327.839325,292.414062 332.478058,294.216339 340.024902,292.961182 
	C341.165955,292.771423 342.272675,292.374939 344.162109,291.868530 
M375.963867,282.602020 
	C376.761688,278.532684 376.851440,274.129639 378.565704,270.492218 
	C380.133911,267.164734 382.936890,263.391815 386.125763,262.085266 
	C391.529694,259.871216 392.302002,256.524323 391.665283,250.785233 
	C388.142548,252.417999 385.121490,253.818237 381.911316,255.306122 
	C380.995300,249.844162 376.602997,251.202698 372.969666,251.223053 
	C368.618073,251.247421 370.372650,255.109177 369.576752,257.262543 
	C368.840607,259.254181 368.738129,261.483215 368.383911,263.612274 
	C366.785309,273.219818 365.196411,282.828949 363.574677,292.614594 
	C367.557495,292.614594 370.933136,292.614594 374.448975,292.614594 
	C374.961975,289.344879 375.422546,286.409210 375.963867,282.602020 
z"/>
<path fill="#193E69" opacity="1.000000" stroke="none" 
	d="
M257.222931,349.682251 
	C271.553131,361.071472 286.636780,370.713135 304.880310,375.298798 
	C302.982178,376.306213 300.770630,377.872620 298.549866,377.885803 
	C270.514221,378.052643 242.477142,378.030914 214.440948,377.921783 
	C212.423050,377.913940 210.409256,376.850891 208.119080,375.980194 
	C224.393677,371.708496 238.617584,363.294830 251.775131,352.794189 
	C253.303543,351.574432 255.204285,350.821198 257.222931,349.682251 
z"/>
<path fill="#FAF9FA" opacity="1.000000" stroke="none" 
	d="
M110.382828,286.486542 
	C109.386375,288.822723 108.566376,290.812927 107.744843,292.806824 
	C103.795723,292.806824 99.990578,292.806824 94.756592,292.806824 
	C94.756592,286.906982 94.946312,281.154602 94.702484,275.420624 
	C94.465332,269.843781 93.783951,264.285797 92.283806,258.742676 
	C90.390411,269.947937 88.497025,281.153198 86.560730,292.612305 
	C83.140892,292.612305 79.887619,292.612305 75.870895,292.612305 
	C78.910286,275.702454 81.913155,258.995789 84.874588,242.519653 
	C91.053070,242.519653 96.691269,242.519653 102.939735,242.519653 
	C103.615799,251.395508 104.266464,259.938019 104.917137,268.480560 
	C105.211868,268.586395 105.506592,268.692230 105.801323,268.798096 
	C108.653069,262.240692 111.984619,255.841263 114.211197,249.078064 
	C116.140190,243.218735 119.484474,241.255951 125.312347,241.913666 
	C128.743576,242.300903 132.254242,241.984390 136.636780,241.984390 
	C133.475342,259.265564 130.419006,275.972229 127.348091,292.758636 
	C123.811226,292.758636 120.706039,292.758636 117.159218,292.758636 
	C118.592758,282.875183 119.987167,273.261627 121.381569,263.648041 
	C120.930611,263.503296 120.479660,263.358551 120.028702,263.213837 
	C116.872231,270.856079 113.715752,278.498322 110.382828,286.486542 
z"/>
<path fill="#FAF8F9" opacity="1.000000" stroke="none" 
	d="
M152.719925,259.755554 
	C148.343704,260.126038 144.412704,260.513031 140.480286,260.900146 
	C140.365265,253.508194 141.041702,252.160629 147.789856,251.528488 
	C153.000504,251.040390 158.452606,251.120026 163.566833,252.122864 
	C169.923218,253.369247 172.487198,257.386108 171.632797,263.830902 
	C170.351746,273.493866 168.583069,283.092194 166.974136,293.011627 
	C163.038223,292.390991 158.971909,294.831909 156.293381,290.444763 
	C153.361404,291.387726 150.162415,292.803955 146.816696,293.409668 
	C140.419113,294.567932 134.674927,291.270508 133.182266,286.063202 
	C131.222137,279.225128 134.327026,271.591919 140.534592,269.427338 
	C144.399185,268.079773 148.622360,267.741302 152.697754,267.024811 
	C155.096024,266.603119 157.520020,266.327820 160.028778,265.973053 
	C159.556747,261.332336 156.874512,259.952087 152.719925,259.755554 
M152.680908,274.061310 
	C150.838181,274.760071 148.665680,275.068420 147.245667,276.267670 
	C145.831299,277.462189 145.171982,279.550781 144.181610,281.247345 
	C146.192047,282.335907 148.242569,284.410156 150.205475,284.330322 
	C156.369781,284.079590 158.654892,280.533569 157.729172,273.535339 
	C156.320389,273.688660 154.898865,273.843353 152.680908,274.061310 
z"/>
<path fill="#FAF9FA" opacity="1.000000" stroke="none" 
	d="
M224.756195,267.988098 
	C227.547546,259.267487 232.209579,252.389221 241.983139,250.595505 
	C254.230164,248.347824 263.685150,257.359802 262.141754,269.731140 
	C261.702118,273.255219 260.037384,275.104492 256.295471,275.046875 
	C249.655716,274.944580 243.013275,275.018158 236.378830,275.018158 
	C236.317123,283.812012 241.382797,285.354492 258.589172,282.223175 
	C259.528107,290.036163 257.313660,292.938599 249.808273,292.999603 
	C245.855835,293.031769 241.810394,292.767975 237.960709,291.930817 
	C230.386597,290.283783 225.751434,285.542419 224.697144,276.892273 
	C224.690536,273.426361 224.723358,270.707245 224.756195,267.988098 
M251.162766,265.044067 
	C250.613861,261.505005 249.024246,259.271332 244.965240,259.659973 
	C240.246490,260.111725 238.139282,262.812958 237.505295,267.764313 
	C241.658127,267.764313 245.425598,267.868103 249.177750,267.674774 
	C249.908508,267.637146 250.579727,266.443939 251.162766,265.044067 
z"/>
<path fill="#FAFAFA" opacity="1.000000" stroke="none" 
	d="
M294.083313,251.434265 
	C303.836548,239.250244 316.108093,238.847702 330.018555,242.937775 
	C329.522949,246.303085 329.032837,249.631088 328.505035,253.214951 
	C324.643768,252.630600 321.246033,251.939819 317.814026,251.636169 
	C311.857239,251.109192 306.810059,252.917252 304.124634,258.626801 
	C301.154480,264.941772 299.082397,271.576263 303.434692,278.079926 
	C306.325562,282.399689 310.961212,283.321716 315.857239,282.684692 
	C318.138885,282.387787 320.362122,281.642426 322.617310,281.099030 
	C323.824799,289.811615 320.334320,293.550446 311.764130,293.409790 
	C302.949646,293.265167 295.929810,290.103699 290.958618,281.840149 
	C290.078400,279.015717 289.424408,276.827545 288.839539,274.233673 
	C288.861237,271.916748 288.813812,270.005524 288.766388,268.094299 
	C290.486633,262.650421 292.206879,257.206573 294.083313,251.434265 
z"/>
<path fill="#F9F7F9" opacity="1.000000" stroke="none" 
	d="
M188.947052,282.014648 
	C189.029846,277.421814 185.860809,276.144043 182.785904,274.761932 
	C175.691833,271.573242 173.781677,269.174133 174.263779,264.105957 
	C174.962173,256.763947 178.373093,252.305817 185.427231,251.470749 
	C191.438675,250.759094 197.601181,251.323700 204.202606,251.323700 
	C203.650742,254.463348 203.201553,257.018829 202.739319,259.648590 
	C197.530014,259.951904 192.493530,260.245148 187.391876,260.542175 
	C187.202667,265.198273 188.909393,267.223022 192.537857,268.136597 
	C197.429916,269.368286 201.744034,271.565186 202.292328,277.373566 
	C202.856461,283.349670 199.842880,287.650574 195.008408,290.595123 
	C187.101868,295.410797 178.866959,294.529602 170.180222,291.411987 
	C170.660690,288.598297 171.118271,285.918732 171.332443,284.664520 
	C177.768295,283.842133 183.323212,283.132294 188.947052,282.014648 
z"/>
<path fill="#F9F7F9" opacity="1.000000" stroke="none" 
	d="
M221.751404,242.280640 
	C221.990448,244.227310 221.775848,246.054321 221.599609,248.277435 
	C221.744492,249.497208 221.850693,251.041641 221.957550,251.041687 
	C229.648163,251.044891 226.299133,255.880051 225.864227,259.278687 
	C223.618622,261.254913 218.795563,257.933685 218.450058,263.929077 
	C217.920044,266.569702 217.584808,268.571228 217.249557,270.572784 
	C216.906525,272.024658 216.544403,273.472351 216.223633,274.929138 
	C214.425827,283.093628 214.824310,283.684906 222.811340,284.779572 
	C223.392609,291.102966 222.193436,292.607178 216.239075,293.023804 
	C207.443741,293.639191 203.825165,291.605743 204.109390,285.399994 
	C204.342606,280.308044 205.592682,275.258545 206.452438,270.200500 
	C207.508392,263.988281 208.635773,257.788208 209.716782,251.580185 
	C211.415710,241.823486 211.410202,241.822525 221.751404,242.280640 
z"/>
<path fill="#F9F7F9" opacity="1.000000" stroke="none" 
	d="
M274.125244,282.032104 
	C273.775818,283.789581 273.426361,285.547089 273.119537,287.688080 
	C272.769165,289.669006 272.376190,291.266449 272.013611,292.740356 
	C268.298401,292.740356 264.868042,292.740356 260.898804,292.740356 
	C263.246338,278.859253 265.525208,265.384125 267.867676,251.532928 
	C272.206726,252.752136 277.263580,250.443726 279.387909,255.452347 
	C282.790955,253.801865 286.329163,252.085846 289.867340,250.369812 
	C290.146454,250.816498 290.425537,251.263199 290.704651,251.709885 
	C289.107635,256.551849 288.907959,262.285156 281.622559,263.107758 
	C280.259583,263.261627 279.153503,265.690704 277.655090,267.601929 
	C276.642700,270.321106 275.904083,272.508179 275.015015,275.090881 
	C274.618134,277.668365 274.371704,279.850220 274.125244,282.032104 
z"/>
<path fill="#EAA633" opacity="1.000000" stroke="none" 
	d="
M275.165436,274.695282 
	C275.904083,272.508179 276.642700,270.321106 277.701599,267.969238 
	C281.309753,267.873596 284.597687,267.942657 288.325989,268.053009 
	C288.813812,270.005524 288.861237,271.916748 288.394653,274.271301 
	C283.642273,274.708191 279.403839,274.701752 275.165436,274.695282 
z"/>
<path fill="#B54A3F" opacity="1.000000" stroke="none" 
	d="
M287.914551,226.110016 
	C289.801056,229.087753 287.292847,228.887405 285.290192,228.909851 
	C279.000427,228.980423 272.709747,228.979691 266.419403,228.988770 
	C252.845413,229.008377 239.271423,229.016891 225.189209,229.019714 
	C226.788498,228.703812 228.894287,228.146683 231.003784,228.132217 
	C247.947769,228.016068 264.892883,228.049515 281.836334,227.893784 
	C283.818237,227.875580 285.792114,226.986526 287.914551,226.110016 
z"/>
<path fill="#AC5940" opacity="1.000000" stroke="none" 
	d="
M289.635773,294.818848 
	C288.105835,295.153748 286.104706,295.927032 284.098511,295.940460 
	C264.405487,296.072418 244.711578,296.077881 224.560516,296.189087 
	C226.132233,295.841248 228.159134,295.073120 230.190826,295.060272 
	C249.847504,294.935913 269.504974,294.938354 289.635773,294.818848 
z"/>
<path fill="#B54A3F" opacity="1.000000" stroke="none" 
	d="
M284.643158,308.940399 
	C283.046356,309.280304 280.969879,309.904144 278.888611,309.920532 
	C262.602173,310.048889 246.314850,310.060760 229.569702,310.151611 
	C231.003082,309.811401 232.892227,309.109009 234.786423,309.095123 
	C251.244186,308.974274 267.702881,308.976959 284.643158,308.940399 
z"/>
<path fill="#EAA633" opacity="1.000000" stroke="none" 
	d="
M217.449356,270.892029 
	C217.584808,268.571228 217.920044,266.569702 218.403442,264.418304 
	C218.534500,268.160858 221.232864,268.069885 224.353760,267.968750 
	C224.723358,270.707245 224.690536,273.426361 224.575836,276.440979 
	C223.276566,275.909576 221.999725,275.156403 220.858475,274.235199 
	C219.718079,273.314728 218.713364,272.226135 217.449356,270.892029 
z"/>
<path fill="#B54A3F" opacity="1.000000" stroke="none" 
	d="
M281.841492,212.359344 
	C284.106598,215.625397 281.073761,214.965622 279.341339,214.972366 
	C268.540771,215.014374 257.739807,214.950485 246.472717,214.871002 
	C251.090012,214.550934 256.170746,214.172211 261.257843,214.042206 
	C266.560242,213.906693 271.871490,214.104050 277.172974,213.951630 
	C278.692352,213.907944 280.191345,213.155914 281.841492,212.359344 
z"/>
<path fill="#FBFAFA" opacity="1.000000" stroke="none" 
	d="
M390.744568,286.074646 
	C386.326447,276.320862 388.188904,264.961304 395.181335,257.489319 
	C401.638031,250.589752 408.338440,249.912201 419.314148,255.271561 
	C419.844238,253.336380 420.424225,251.483978 420.855896,249.597641 
	C422.754425,241.301300 422.738892,241.297745 432.500092,242.741287 
	C429.682281,259.393158 426.866333,276.034088 423.903015,293.546021 
	C419.689728,292.917694 415.849182,292.344940 410.314850,291.519623 
	C402.742676,295.846466 397.314911,294.812408 390.744568,286.074646 
M415.999847,264.833740 
	C412.298004,259.930420 408.158508,259.689880 404.217621,264.149170 
	C400.636810,268.200989 399.956390,275.052979 402.312073,280.027710 
	C403.984009,283.558563 406.401825,283.906219 409.597504,282.514923 
	C415.372375,280.000793 418.023010,273.318146 415.999847,264.833740 
z"/>
<path fill="#FBFAFA" opacity="1.000000" stroke="none" 
	d="
M343.778687,291.971313 
	C342.272675,292.374939 341.165955,292.771423 340.024902,292.961182 
	C332.478058,294.216339 327.839325,292.414062 326.004669,287.569305 
	C323.698395,281.479156 326.232269,273.090393 332.119446,270.209015 
	C336.030090,268.295013 340.622589,267.701965 344.964172,266.770721 
	C347.186737,266.294006 349.528564,266.373169 351.795258,266.202759 
	C351.674683,259.566895 351.294586,259.472412 332.802856,261.181213 
	C333.122772,252.961716 334.002625,251.841324 341.862427,251.176407 
	C345.824951,250.841202 349.870941,250.734283 353.817322,251.134476 
	C360.694092,251.831863 364.635498,255.939163 364.030640,262.826416 
	C363.262695,271.570587 361.624146,280.257019 359.933350,288.884552 
	C359.621582,290.475403 357.412598,292.600922 355.839630,292.829346 
	C353.375824,293.187134 350.707764,292.138702 348.126251,291.685944 
	C348.185059,291.185974 348.243835,290.686005 348.302643,290.186035 
	C346.922455,290.746857 345.542297,291.307709 343.778687,291.971313 
M342.973907,274.289795 
	C339.015686,276.103119 337.089111,278.922516 338.370972,283.350281 
	C346.501740,285.804047 351.174469,282.235016 350.454224,273.569672 
	C348.207855,273.739410 345.960266,273.909241 342.973907,274.289795 
z"/>
<path fill="#F9F9F8" opacity="1.000000" stroke="none" 
	d="
M375.923492,283.037781 
	C375.422546,286.409210 374.961975,289.344879 374.448975,292.614594 
	C370.933136,292.614594 367.557495,292.614594 363.574677,292.614594 
	C365.196411,282.828949 366.785309,273.219818 368.383911,263.612274 
	C368.738129,261.483215 368.840607,259.254181 369.576752,257.262543 
	C370.372650,255.109177 368.618073,251.247421 372.969666,251.223053 
	C376.602997,251.202698 380.995300,249.844162 381.911316,255.306122 
	C385.121490,253.818237 388.142548,252.417999 391.665283,250.785233 
	C392.302002,256.524323 391.529694,259.871216 386.125763,262.085266 
	C382.936890,263.391815 380.133911,267.164734 378.565704,270.492218 
	C376.851440,274.129639 376.761688,278.532684 375.923492,283.037781 
z"/>
<path fill="#DC2431" opacity="1.000000" stroke="none" 
	d="
M275.015015,275.090881 
	C279.403839,274.701752 283.642273,274.708191 288.325531,274.677002 
	C289.424408,276.827545 290.078400,279.015717 290.738403,281.571411 
	C285.510010,281.950226 280.275635,281.961548 274.583252,282.002502 
	C274.371704,279.850220 274.618134,277.668365 275.015015,275.090881 
z"/>
<path fill="#DD2737" opacity="1.000000" stroke="none" 
	d="
M153.079132,274.029663 
	C154.898865,273.843353 156.320389,273.688660 157.729172,273.535339 
	C158.654892,280.533569 156.369781,284.079590 150.205475,284.330322 
	C148.242569,284.410156 146.192047,282.335907 144.181610,281.247345 
	C145.171982,279.550781 145.831299,277.462189 147.245667,276.267670 
	C148.665680,275.068420 150.838181,274.760071 153.079132,274.029663 
z"/>
<path fill="#DD2737" opacity="1.000000" stroke="none" 
	d="
M251.220581,265.413879 
	C250.579727,266.443939 249.908508,267.637146 249.177750,267.674774 
	C245.425598,267.868103 241.658127,267.764313 237.505295,267.764313 
	C238.139282,262.812958 240.246490,260.111725 244.965240,259.659973 
	C249.024246,259.271332 250.613861,261.505005 251.220581,265.413879 
z"/>
<path fill="#F3AF30" opacity="1.000000" stroke="none" 
	d="
M416.146179,265.213654 
	C418.023010,273.318146 415.372375,280.000793 409.597504,282.514923 
	C406.401825,283.906219 403.984009,283.558563 402.312073,280.027710 
	C399.956390,275.052979 400.636810,268.200989 404.217621,264.149170 
	C408.158508,259.689880 412.298004,259.930420 416.146179,265.213654 
z"/>
<path fill="#F3AF30" opacity="1.000000" stroke="none" 
	d="
M343.343323,274.184418 
	C345.960266,273.909241 348.207855,273.739410 350.454224,273.569672 
	C351.174469,282.235016 346.501740,285.804047 338.370972,283.350281 
	C337.089111,278.922516 339.015686,276.103119 343.343323,274.184418 
z"/>
</svg>